HIERARCHY
ROOT Hips
{
	OFFSET 0.00000 0.00000 0.00000
	CHANNELS 6 Xposition Yposition Zposition Zrotation Yrotation Xrotation 
	JOINT LHipJoint
	{
		OFFSET 0 0 0
		CHANNELS 3 Zrotation Yrotation Xrotation
		JOINT LeftUpLeg
		{
			OFFSET 1.62964 -1.40469 0.78906
			CHANNELS 3 Zrotation Yrotation Xrotation
			JOINT LeftLeg
			{
				OFFSET 2.29640 -6.30932 0.00000
				CHANNELS 3 Zrotation Yrotation Xrotation
				JOINT LeftFoot
				{
					OFFSET 2.29451 -6.30412 0.00000
					CHANNELS 3 Zrotation Yrotation Xrotation
					JOINT LeftToeBase
					{
						OFFSET 0.03611 -0.09921 1.56387
						CHANNELS 3 Zrotation Yrotation Xrotation
						End Site
						{
							OFFSET 0.00000 -0.00000 0.80291
						}
					}
				}
			}
		}
	}
	JOINT RHipJoint
	{
		OFFSET 0 0 0
		CHANNELS 3 Zrotation Yrotation Xrotation
		JOINT RightUpLeg
		{
			OFFSET -1.73712 -1.40469 0.78906
			CHANNELS 3 Zrotation Yrotation Xrotation
			JOINT RightLeg
			{
				OFFSET -2.28137 -6.26801 0.00000
				CHANNELS 3 Zrotation Yrotation Xrotation
				JOINT RightFoot
				{
					OFFSET -2.28681 -6.28298 0.00000
					CHANNELS 3 Zrotation Yrotation Xrotation
					JOINT RightToeBase
					{
						OFFSET -0.15927 -0.43759 1.61103
						CHANNELS 3 Zrotation Yrotation Xrotation
						End Site
						{
							OFFSET -0.00000 -0.00000 0.84630
						}
					}
				}
			}
		}
	}
	JOINT LowerBack
	{
		OFFSET 0 0 0
		CHANNELS 3 Zrotation Yrotation Xrotation
		JOINT Spine
		{
			OFFSET -0.04227 2.04338 -0.00225
			CHANNELS 3 Zrotation Yrotation Xrotation
			JOINT Spine1
			{
				OFFSET -0.02148 2.04482 -0.04273
				CHANNELS 3 Zrotation Yrotation Xrotation
				JOINT Neck
				{
					OFFSET 0 0 0
					CHANNELS 3 Zrotation Yrotation Xrotation
					JOINT Neck1
					{
						OFFSET 0.09180 1.44629 0.19359
						CHANNELS 3 Zrotation Yrotation Xrotation
						JOINT Head
						{
							OFFSET 0.00887 1.40645 0.14750
							CHANNELS 3 Zrotation Yrotation Xrotation
							End Site
							{
								OFFSET -0.00669 1.50671 0.03707
							}
						}
					}
				}
				JOINT LeftShoulder
				{
					OFFSET 0 0 0
					CHANNELS 3 Zrotation Yrotation Xrotation
					JOINT LeftArm
					{
						OFFSET 2.17674 1.86763 -0.06520
						CHANNELS 3 Zrotation Yrotation Xrotation
						JOINT LeftForeArm
						{
							OFFSET 4.65776 -0.00000 0.00000
							CHANNELS 3 Zrotation Yrotation Xrotation
							JOINT LeftHand
							{
								OFFSET 3.55539 -0.00000 0.00000
								CHANNELS 3 Zrotation Yrotation Xrotation
								JOINT LeftFingerBase
								{
									OFFSET 0 0 0
									CHANNELS 3 Zrotation Yrotation Xrotation
									JOINT LeftHandIndex1
									{
										OFFSET 0.70726 -0.00000 0.00000
										CHANNELS 3 Zrotation Yrotation Xrotation
										End Site
										{
											OFFSET 0.57022 -0.00000 0.00000
										}
									}
								}
								JOINT LThumb
								{
									OFFSET 0 0 0
									CHANNELS 3 Zrotation Yrotation Xrotation
									End Site
									{
										OFFSET 0.57892 -0.00000 0.57892
									}
								}
							}
						}
					}
				}
				JOINT RightShoulder
				{
					OFFSET 0 0 0
					CHANNELS 3 Zrotation Yrotation Xrotation
					JOINT RightArm
					{
						OFFSET -2.80694 1.55459 -0.32496
						CHANNELS 3 Zrotation Yrotation Xrotation
						JOINT RightForeArm
						{
							OFFSET -4.71925 -0.00000 -0.00000
							CHANNELS 3 Zrotation Yrotation Xrotation
							JOINT RightHand
							{
								OFFSET -3.56990 -0.00000 0.00000
								CHANNELS 3 Zrotation Yrotation Xrotation
								JOINT RightFingerBase
								{
									OFFSET 0 0 0
									CHANNELS 3 Zrotation Yrotation Xrotation
									JOINT RightHandIndex1
									{
										OFFSET -0.50776 -0.00000 0.00000
										CHANNELS 3 Zrotation Yrotation Xrotation
										End Site
										{
											OFFSET -0.40937 -0.00000 0.00000
										}
									}
								}
								JOINT RThumb
								{
									OFFSET 0 0 0
									CHANNELS 3 Zrotation Yrotation Xrotation
									End Site
									{
										OFFSET -0.41562 -0.00000 0.41562
									}
								}
							}
						}
					}
				}
			}
		}
	}
}
MOTION
Frames: 5
Frame Time: .0083333
-0.0952 17.5238 19.3634 191.0170 -5.8375 -161.3660 0.0000 0.0000 0.0000 -2.8834 -22.4085 -18.9885 3.6783 11.7195 34.7468 2.0589 -9.3483 -25.7590 1.1620 -6.8434 -19.2523 0.0000 0.0000 0.0000 -4.6886 9.4792 -45.1904 -1.5604 -7.8832 22.3599 0.7984 -17.4547 -14.9558 -0.5142 4.5962 -12.7602 -10.0806 -4.4303 -19.6552 0.6987 -3.7291 1.0275 5.3620 -2.5053 12.9957 -0.4486 -11.0963 -2.7232 7.9345 -15.5910 18.7664 1.5512 -6.5366 6.8628 0.0000 0.0000 0.0000 -69.0871 5.7083 27.9154 21.5446 -32.4585 -6.3397 -0.0000 0.0000 -1.9283 22.0450 -10.8616 -4.3636 -7.1250 0.0000 -0.0000 -3.5478 18.2972 2.2589 0.0000 0.0000 0.0000 91.6436 -12.8287 11.9062 -19.7744 30.3695 -5.4168 0.0000 -0.0000 -5.1461 -11.5867 -50.7367 9.0200 7.1250 -0.0000 -0.0000 58.8921 -74.7436 -44.6049
-0.0389 17.4989 19.3045 191.2220 -6.0294 -161.5680 0.0000 0.0000 0.0000 -2.5519 -22.5726 -18.5836 3.7320 11.7950 35.0105 2.1257 -9.5490 -26.1843 1.0413 -6.4898 -18.2125 0.0000 0.0000 0.0000 -5.3730 9.5232 -44.7228 -1.4351 -7.5742 21.4281 0.9460 -18.3401 -14.5165 -0.4100 4.1102 -11.3870 -10.3154 -4.4690 -19.4148 0.7536 -3.7787 0.8357 5.5568 -2.5309 12.6630 -0.4245 -11.1344 -2.4726 7.8199 -15.6017 19.0078 1.5243 -6.5294 6.8866 -0.0000 -0.0000 0.0000 -68.7170 6.2885 28.5325 22.0190 -32.9984 -6.5962 -0.0000 0.0000 -2.1890 21.4028 -9.9221 -3.8637 -7.1250 0.0000 -0.0000 -3.9766 19.3527 2.4400 -0.0000 -0.0000 0.0000 91.5455 -13.3937 12.1047 -19.7212 30.3050 -5.3900 0.0000 -0.0000 -5.5038 -11.5529 -50.5415 8.9687 7.1250 -0.0000 -0.0000 58.2612 -74.6454 -43.9584
0.0227 17.4733 19.2479 191.5970 -6.1737 -161.7180 0.0000 0.0000 0.0000 -1.9380 -22.5521 -18.4393 3.8329 11.9347 35.5012 2.1939 -9.8722 -26.6142 0.9468 -6.1971 -17.3575 0.0000 0.0000 0.0000 -5.8576 9.7143 -44.3793 -1.3148 -7.2627 20.4961 1.1183 -19.3332 -13.9511 -0.3720 3.9176 -10.8450 -10.3487 -4.5163 -19.9787 0.7828 -3.7454 1.1065 5.5895 -2.5492 13.3068 -0.2797 -11.0955 -2.6615 7.7913 -15.5729 19.1642 1.4830 -6.4909 6.9554 -0.0000 -0.0000 0.0000 -68.2131 6.0991 28.8573 22.4774 -33.5124 -6.8476 -0.0000 0.0000 -2.4478 20.8218 -9.2822 -3.5102 -7.1250 0.0000 -0.0000 -4.3795 20.0758 2.6177 -0.0000 -0.0000 0.0000 91.6295 -13.0993 12.0168 -19.5480 30.0939 -5.3028 0.0000 -0.0000 -5.4984 -11.3820 -50.6063 8.8427 7.1250 -0.0000 -0.0000 58.5913 -74.6092 -44.2054
0.0844 17.4469 19.1900 191.9500 -6.2618 -161.8580 0.0000 0.0000 0.0000 -1.3916 -22.4918 -18.2494 3.9086 12.0378 35.8658 2.2752 -9.9198 -27.1130 1.0377 -6.4790 -18.1809 0.0000 0.0000 0.0000 -6.3262 9.8651 -44.0801 -1.2042 -6.9622 19.6035 1.2471 -20.0804 -13.6095 -0.3048 3.5494 -9.8122 -10.3254 -4.4835 -18.9780 0.8427 -3.9040 0.3776 5.6546 -2.5572 11.9088 -0.4752 -11.2215 -2.3728 7.6318 -15.6804 19.8757 1.4622 -6.5072 7.1441 -0.0000 -0.0000 0.0000 -67.9045 7.5053 29.1593 23.0122 -34.1021 -7.1451 -0.0000 0.0000 -1.9721 20.3908 -8.6667 -3.2059 -7.1250 0.0000 -0.0000 -4.6823 20.7573 2.7279 -0.0000 -0.0000 0.0000 91.6502 -14.4750 11.9208 -19.4879 30.0204 -5.2727 0.0000 -0.0000 -5.2222 -11.1996 -50.4317 8.6781 7.1250 -0.0000 -0.0000 58.1374 -74.4628 -43.6626
0.1435 17.4214 19.1304 192.1620 -6.4155 -162.0640 0.0000 0.0000 0.0000 -1.0395 -22.4288 -17.9601 3.9647 12.1133 36.1341 2.3717 -9.7477 -27.6935 1.3052 -7.2372 -20.4202 0.0000 0.0000 0.0000 -7.0095 10.0419 -43.6538 -1.1179 -6.7167 18.8788 1.3064 -20.5371 -13.9719 -0.1680 2.6402 -7.2787 -10.3848 -4.5162 -19.0771 0.7861 -3.9097 0.4593 5.6154 -2.5691 12.0615 -0.7937 -11.0320 -2.6137 8.0030 -15.4775 20.1567 1.6236 -6.3676 7.3243 0.0000 0.0000 0.0000 -67.5138 7.4568 29.1501 23.2550 -34.3665 -7.2817 -0.0000 0.0000 -1.2449 20.3207 -8.3377 -3.0738 -7.1250 0.0000 -0.0000 -4.7308 21.1103 2.7185 0.0000 0.0000 0.0000 91.8422 -14.5120 11.6122 -19.3377 29.8362 -5.1978 0.0000 -0.0000 -4.9192 -10.7433 -49.9768 8.2670 7.1250 -0.0000 -0.0000 56.9942 -74.0825 -42.2930
